PathFileType  4	(X/Y/Z) C:\Users\antoi\Documents\MyRepositories\mobilecap\ResultsAnalysis
DataRate	CameraRate	NumFrames	NumMarkers	Units	OrigDataRate	OrigDataStartFrame	OrigNumFrames
100.0	100.0	4	51	mm	100.0	353	1411
Frame#	Time	r_knee			r_shank_antsup			r_ankle			r_calc			r_5meta			r_toe			L_knee			L_shank_antsup			L_ankle			L_calc			L_5meta			L_toe			r_sh2			r_sh3			r_sh4			L_sh2			L_sh3			r_thigh1			r_thigh2			r_thigh3			r_thigh4			r_thigh5			L_thigh1			L_thigh2			L_thigh3			L_thigh4			r.ASIS			r.PSIS			L.ASIS			L.PSIS			C7			R_Shoulder			L_Shoulder			R_Sternum			L_Sternum			R_humerus			R_elbow_med			R_elbow_lat			R_forearm			R_wrist_radius			R_wrist_ulna			L_humerus			L_elbow_med			L_elbow_lat			L_forearm			L_wrist_radius			L_wrist_ulna			R_HJC			L_HJC			R_HJC_reg			L_HJC_reg			
		X1	Y1	Z1	X2	Y2	Z2	X3	Y3	Z3	X4	Y4	Z4	X5	Y5	Z5	X6	Y6	Z6	X7	Y7	Z7	X8	Y8	Z8	X9	Y9	Z9	X10	Y10	Z10	X11	Y11	Z11	X12	Y12	Z12	X13	Y13	Z13	X14	Y14	Z14	X15	Y15	Z15	X16	Y16	Z16	X17	Y17	Z17	X18	Y18	Z18	X19	Y19	Z19	X20	Y20	Z20	X21	Y21	Z21	X22	Y22	Z22	X23	Y23	Z23	X24	Y24	Z24	X25	Y25	Z25	X26	Y26	Z26	X27	Y27	Z27	X28	Y28	Z28	X29	Y29	Z29	X30	Y30	Z30	X31	Y31	Z31	X32	Y32	Z32	X33	Y33	Z33	X34	Y34	Z34	X35	Y35	Z35	X36	Y36	Z36	X37	Y37	Z37	X38	Y38	Z38	X39	Y39	Z39	X40	Y40	Z40	X41	Y41	Z41	X42	Y42	Z42	X43	Y43	Z43	X44	Y44	Z44	X45	Y45	Z45	X46	Y46	Z46	X47	Y47	Z47	X48	Y48	Z48	X49	Y49	Z49	X50	Y50	Z50	X51	Y51	Z51	

353	3.52000000	-195.28260	442.75145	-408.70683	-174.34717	377.88232	-379.66009	-267.57234	92.28585	-408.61816	-334.14387	54.29901	-447.68717	-168.10589	50.08335	-373.00134	-123.38572	74.56785	-424.88681	-192.67515	440.07229	-803.99527	-149.31751	373.89160	-813.42948	-256.79825	91.61248	-783.91492	-325.37105	56.03620	-734.76067	-165.97820	45.90952	-813.49808	-116.83472	75.68225	-763.65899	-201.42347	268.24175	-372.45591	-245.57777	393.77982	-395.74142	-280.36447	282.92353	-392.03865	-234.14750	399.79981	-827.61693	-256.89054	279.39398	-826.96196	-457.60717	588.81580	-462.58891	-352.64508	567.60048	-434.85282	-348.05837	521.80397	-387.30754	-492.40783	510.94790	-388.87837	-381.77530	475.51185	-383.99779	-449.05165	570.17924	-776.11677	-314.10266	547.51319	-787.20683	-476.54593	459.70663	-802.07258	-335.09933	443.85885	-812.41404	-480.36882	597.99214	-471.71230	-645.82314	639.42630	-555.42925	-467.75699	583.31197	-727.32014	-643.60386	631.77093	-661.96758	-319.40737	1018.37501	-591.79586	-271.54892	937.97789	-453.70722	-258.60044	943.41798	-738.33063	-251.38923	882.86808	-571.82584	-249.17474	882.09391	-613.10748	-258.87988	754.77249	-307.85122	-293.12369	632.88435	-317.80321	-265.39451	684.22369	-259.16637	-175.28582	713.33581	-324.98122	-98.48485	739.64591	-398.75061	-78.45953	700.00337	-391.66542	-230.66284	833.96544	-807.57808	-292.20534	626.35853	-857.35727	-272.63328	661.96162	-922.68793	-178.47564	701.83228	-868.59010	-100.44034	735.43424	-788.70448	-83.51379	702.95175	-790.15801	-552.29191	532.00913	-499.24631	-539.37023	523.02214	-698.91952	-550.21469	527.08445	-504.38591	-546.70044	514.96118	-673.09820	
354	3.53000000	-190.96704	442.93863	-409.45393	-171.31412	377.20190	-380.49320	-267.18984	92.26497	-409.07115	-334.05762	54.39828	-447.72118	-167.91156	49.92442	-373.03138	-123.04475	74.10722	-424.91087	-188.71732	439.52886	-804.12081	-146.00826	372.88987	-813.37875	-256.52351	91.55210	-783.73356	-325.23332	56.10158	-734.71254	-165.69153	46.25270	-814.49368	-116.59941	75.18256	-763.86187	-199.49117	267.76864	-373.29794	-242.29229	393.92174	-396.88241	-278.22558	283.54527	-392.97604	-230.65149	399.62177	-827.87561	-254.52859	279.40133	-827.04361	-452.30321	591.45713	-462.54809	-348.23566	568.23358	-434.60702	-343.24016	522.79092	-387.83281	-487.82800	513.69712	-389.05790	-377.41375	476.69311	-384.96631	-443.12290	573.19282	-776.13341	-308.62815	548.62087	-787.21434	-472.21512	463.15709	-802.40865	-330.98060	445.39710	-812.57272	-474.89524	601.13301	-471.44630	-640.74363	643.79674	-555.26023	-462.81787	586.75552	-727.68242	-638.88049	635.68739	-661.64345	-313.83565	1021.85276	-592.39996	-265.96190	942.15743	-454.59116	-253.12962	947.61063	-738.26520	-245.67047	886.49305	-572.01062	-243.40108	885.62654	-613.40937	-248.81321	760.37283	-308.32625	-280.59490	637.83992	-316.80453	-252.78776	690.14240	-259.06388	-164.23902	720.12384	-326.56273	-89.12531	746.98939	-401.65471	-68.29692	707.69196	-394.33616	-223.14467	838.96614	-807.37173	-280.07849	630.06850	-857.61031	-260.52480	666.32542	-922.81235	-167.50094	707.55379	-867.32707	-90.82165	742.51412	-786.81790	-73.39532	710.27402	-788.14269	-547.37582	535.63370	-499.21006	-534.87829	526.71472	-698.91295	-545.47184	531.32548	-503.76679	-542.51217	518.43791	-672.81880	
355	3.54000000	-187.01214	443.00005	-410.16555	-168.46234	376.54054	-381.34469	-266.88567	92.29906	-409.28112	-333.97850	54.51304	-447.75844	-167.82263	49.66148	-373.05654	-122.79454	73.61939	-425.00458	-184.79238	438.93897	-804.11035	-142.84965	371.82678	-813.39066	-256.25933	91.55452	-783.66596	-325.12475	56.15160	-734.69954	-165.49510	46.41366	-815.21105	-116.39536	74.77488	-763.96934	-197.72711	267.12651	-374.30108	-239.06064	394.13023	-398.00248	-276.25259	283.99445	-393.90956	-227.11679	399.40872	-828.19093	-252.21011	279.44612	-827.19433	-447.00358	594.43388	-462.58537	-342.85245	569.67847	-435.10637	-338.49807	524.00464	-388.43756	-483.37513	517.11175	-388.77447	-373.23652	478.23705	-385.68065	-437.11509	576.58032	-776.04162	-303.08601	549.95740	-787.31163	-467.94341	466.83702	-802.44880	-326.99522	447.08195	-812.63005	-469.29008	604.64891	-471.62779	-635.66529	648.70547	-555.02868	-457.76147	590.75331	-728.03944	-634.06060	640.20397	-661.34128	-308.77403	1025.97463	-592.30362	-260.77742	946.81918	-455.53270	-248.15611	952.35671	-738.26141	-240.25870	890.75849	-572.37665	-238.02280	889.97342	-613.69625	-239.54757	766.44997	-309.02250	-269.05487	643.26542	-316.16696	-241.23005	696.51716	-259.26720	-154.12617	727.47188	-328.35366	-80.75240	754.84637	-404.69039	-59.04687	715.90410	-397.46295	-216.36450	844.54638	-807.29247	-269.06169	634.49810	-857.31007	-249.56200	671.17159	-922.66944	-157.66967	713.94326	-866.15249	-82.31618	750.28341	-784.96680	-64.25311	718.44083	-786.38725	-542.35798	539.69179	-499.34040	-530.37389	530.99463	-699.08444	-540.65966	536.09983	-503.64230	-538.10743	522.57834	-672.73412	
356	3.55000000	-183.71341	442.54037	-410.90401	-165.73004	375.84332	-382.17443	-266.59672	92.44111	-409.22639	-333.88103	54.63810	-447.81038	-167.71071	49.33954	-373.05638	-122.63108	73.12167	-425.05487	-181.05202	438.31977	-804.04733	-139.75679	370.67529	-813.39058	-255.95671	91.63465	-783.74888	-325.02120	56.23065	-734.69318	-165.45007	45.70537	-814.72928	-116.17386	74.25550	-763.82257	-195.97708	266.58193	-375.13550	-236.02510	394.22170	-398.85614	-274.32968	284.05448	-394.65083	-223.65378	399.07018	-828.33954	-249.94854	279.48804	-827.54812	-441.51470	597.81124	-462.44741	-337.49500	571.44044	-435.43338	-333.86161	525.41028	-388.90817	-478.77796	520.51476	-388.75159	-369.28445	480.24618	-386.10795	-431.22412	580.14504	-775.96995	-297.66878	551.56285	-787.47715	-463.77812	470.77420	-802.13950	-323.23624	448.83015	-812.63632	-463.54903	608.68297	-471.97202	-630.55885	654.15146	-554.79755	-452.45550	595.14637	-727.93579	-629.07002	645.48030	-661.11835	-304.38980	1030.70851	-592.04068	-255.99367	952.01352	-456.08158	-243.56024	957.77780	-738.54485	-235.18642	895.77289	-572.68971	-232.97336	895.15289	-614.07965	-231.00517	772.89688	-309.80658	-258.70044	649.24594	-315.86323	-230.78885	703.17383	-259.92644	-145.03114	735.16470	-330.24561	-73.28596	763.05293	-407.72813	-50.77133	724.53583	-400.82097	-210.29633	850.62445	-807.23206	-259.07768	639.71955	-856.47654	-239.91595	676.39212	-922.05474	-149.00738	720.98160	-865.06832	-74.98956	758.65841	-783.21439	-56.23833	727.08699	-784.36614	-537.35454	544.32010	-499.39290	-525.72242	535.79320	-699.16538	-535.65868	541.19490	-503.80972	-533.29551	527.43206	-672.56378	
